<svg width="25" height="24" viewBox="0 0 25 24" fill="none" xmlns="http://www.w3.org/2000/svg">
<path fill-rule="evenodd" clip-rule="evenodd" d="M12.75 2.25C7.36522 2.25 3 6.61522 3 12C3 17.3848 7.36522 21.75 12.75 21.75C18.1348 21.75 22.5 17.3848 22.5 12C22.5 6.61522 18.1348 2.25 12.75 2.25ZM4.5 12C4.5 7.44365 8.19365 3.75 12.75 3.75C17.3063 3.75 21 7.44365 21 12C21 16.5563 17.3063 20.25 12.75 20.25C11.8927 20.25 11.066 20.1192 10.2886 19.8766C10.7112 19.213 11.0473 18.498 11.2887 17.7491L11.8053 15.7719C12.0187 16.0765 12.3048 16.3229 12.6377 16.4888C12.9705 16.6547 13.3395 16.7348 13.7112 16.7219C16.2465 16.7219 18.0278 14.4181 18.0278 11.5563C18.0278 8.80719 15.7834 6.75282 12.9037 6.75282C9.31746 6.75282 7.41152 9.16344 7.41152 11.7819C7.41152 13.005 8.05871 14.5191 9.09777 15.0059C9.25214 15.0772 9.35308 15.0059 9.37683 14.8931C9.40057 14.7804 9.54292 14.211 9.60828 13.9495C9.61853 13.9081 9.6186 13.8643 9.60825 13.8229C9.5979 13.7815 9.57756 13.7433 9.54902 13.7116C9.15647 13.1585 8.94867 12.4957 8.95527 11.8175C8.95321 11.3307 9.04996 10.8486 9.23964 10.4003C9.42932 9.95195 9.708 9.54679 10.0588 9.2093C10.4096 8.87181 10.8253 8.60902 11.2806 8.43682C11.7359 8.26463 12.2214 8.18662 12.7078 8.20751C13.1633 8.18086 13.6194 8.24946 14.0469 8.40892C14.4745 8.56838 14.8641 8.8152 15.1909 9.13365C15.5177 9.45209 15.7746 9.83516 15.9451 10.2584C16.1156 10.6817 16.196 11.1358 16.1812 11.5919C16.1812 13.8363 15.0412 15.3978 13.5687 15.3978C13.3785 15.4124 13.1875 15.381 13.012 15.3062C12.8365 15.2313 12.6817 15.1153 12.5605 14.9679C12.4393 14.8206 12.3555 14.6462 12.316 14.4595C12.2765 14.2729 12.2826 14.0794 12.3337 13.8956C12.4181 13.5454 12.5295 13.1847 12.638 12.8332C12.8349 12.1955 13.0225 11.5881 13.0225 11.1288C13.043 10.9796 13.0311 10.8277 12.9875 10.6835C12.9439 10.5394 12.8696 10.4064 12.7698 10.2936C12.67 10.1808 12.547 10.0909 12.4092 10.0301C12.2714 9.9693 12.1221 9.93899 11.9715 9.94126C11.1403 9.94126 10.4693 10.8081 10.4693 11.96C10.4631 12.3671 10.5399 12.7711 10.695 13.1475L9.71527 17.3038C9.59525 18.0891 9.59499 18.8882 9.71449 19.6736C9.06392 19.4161 8.45391 19.0782 7.89671 18.6722C6.91962 17.9584 6.10317 17.0348 5.51292 15.9593C5.28071 15.5362 5.08712 15.0962 4.93299 14.6446C4.65223 13.8144 4.5 12.925 4.5 12Z" fill="#121212"/>
</svg>
