<svg width="25" height="24" viewBox="0 0 25 24" fill="none" xmlns="http://www.w3.org/2000/svg">
<path fill-rule="evenodd" clip-rule="evenodd" d="M15.2715 3.34352C15.7799 3.25644 16.3492 3.22736 16.885 3.31801C17.8418 3.47989 18.7257 3.92462 19.4244 4.59138C19.8811 4.60171 20.3299 4.51173 20.727 4.38347C21.0631 4.27492 21.347 4.14385 21.546 4.04021C21.6449 3.98868 21.7213 3.94472 21.771 3.91496C21.7958 3.90011 21.8138 3.88886 21.8245 3.88207L21.8341 3.87601C22.1309 3.67828 22.5261 3.71677 22.779 3.96827C23.0319 4.21984 23.0726 4.61476 22.8764 4.91266C22.6687 5.22795 22.3803 5.79002 22.0573 6.41978C22.0065 6.5188 21.9548 6.61949 21.9025 6.72116C21.7172 7.08113 21.5272 7.44494 21.3501 7.75707C21.2389 7.95306 21.12 8.15204 21.0001 8.32398V8.59775C21.0077 9.60338 20.8924 10.6038 20.6583 11.577C20.511 12.1893 20.3167 12.7909 20.0765 13.3763C19.4541 14.893 18.5357 16.2704 17.3749 17.4282C16.2142 18.5859 14.8344 19.5008 13.3162 20.1193C11.7992 20.7373 10.1745 21.0471 8.53665 21.0306C6.16234 21.0327 3.83798 20.3486 1.84326 19.0607C1.54945 18.871 1.42576 18.5035 1.54509 18.1747C1.66443 17.846 1.99512 17.6434 2.34219 17.6863C2.64255 17.7235 2.94496 17.7416 3.24762 17.7407C4.33507 17.7376 5.40181 17.4973 6.37567 17.0447C6.06612 16.9038 5.77058 16.73 5.49443 16.5253C4.68271 15.9234 4.0788 15.0834 3.76673 14.1223C3.68564 13.8725 3.74108 13.5985 3.91289 13.3999C3.91597 13.3964 3.91908 13.3929 3.92221 13.3894C3.73869 13.2257 3.56696 13.0475 3.40886 12.8559C2.69754 11.9937 2.30587 10.9123 2.30009 9.79453L2.30007 9.79065L2.30008 9.74065C2.30008 9.47478 2.44083 9.22879 2.67003 9.09407C2.72813 9.05992 2.78972 9.03421 2.85307 9.01697C2.51473 8.34189 2.33879 7.59644 2.34007 6.84018C2.33968 5.98342 2.56347 5.14145 2.98923 4.39795C3.11214 4.18331 3.33297 4.04307 3.5795 4.0231C3.82603 4.00312 4.06656 4.10598 4.22242 4.29802C5.18498 5.48403 6.38626 6.45429 7.74825 7.14576C8.44839 7.50121 9.18294 7.77891 9.93874 7.97534C10.3625 8.08547 10.7929 8.17006 11.2277 8.22849C11.2085 7.50523 11.3513 6.78236 11.6511 6.11443C12.0907 5.1346 12.8432 4.32843 13.7904 3.82233C14.1916 3.60801 14.7241 3.43729 15.2715 3.34352ZM3.99335 10.891C4.123 11.2559 4.31586 11.5982 4.56592 11.9013C5.05724 12.4969 5.73919 12.9044 6.49641 13.0551C6.83369 13.1222 7.08213 13.41 7.09916 13.7535C7.11618 14.097 6.89743 14.408 6.56843 14.5082C6.29594 14.5911 6.01676 14.6489 5.73441 14.681C5.92099 14.9215 6.14047 15.1369 6.38787 15.3204C6.94906 15.7365 7.626 15.9673 8.32451 15.9808C8.64143 15.9869 8.9203 16.1916 9.02112 16.4921C9.12195 16.7926 9.02296 17.124 8.77386 17.3201C7.72469 18.1456 6.51149 18.7213 5.22594 19.0151C6.29142 19.3564 7.40887 19.532 8.53916 19.5306L8.54786 19.5306C9.98792 19.5456 11.4165 19.2735 12.7502 18.7302C14.0839 18.1868 15.296 17.3832 16.3156 16.3661C17.3353 15.3491 18.142 14.1391 18.6888 12.8068C18.8998 12.2926 19.0705 11.7641 19.1999 11.2262C19.4057 10.3704 19.507 9.49078 19.5001 8.60651L19.5001 8.60065V8.07065C19.5001 7.88879 19.5661 7.71314 19.686 7.57636C19.7553 7.49732 19.8764 7.31476 20.0455 7.01686C20.2061 6.73374 20.3839 6.39383 20.5688 6.03465C20.58 6.01293 20.5912 5.99109 20.6025 5.96915C20.1229 6.0733 19.5793 6.12789 19.0095 6.06631C18.829 6.0468 18.6618 5.96252 18.5387 5.82908C18.0358 5.28374 17.3662 4.92073 16.6348 4.79699C16.3102 4.74209 15.9179 4.75465 15.5248 4.82199C15.0977 4.89515 14.726 5.02317 14.4973 5.14534C13.843 5.49491 13.3233 6.05175 13.0196 6.72854C12.7159 7.40533 12.6454 8.16377 12.8192 8.88493C12.8746 9.11484 12.8183 9.35742 12.6674 9.53945C12.5164 9.72148 12.2884 9.82164 12.0522 9.80969C11.2088 9.76703 10.3743 9.63838 9.56142 9.42711C8.70152 9.20362 7.86579 8.88767 7.06921 8.48326C5.89643 7.88785 4.82838 7.11075 3.90354 6.18306C3.86135 6.39868 3.83993 6.6187 3.84008 6.84015L3.84007 6.84207C3.83903 7.39279 3.97418 7.93522 4.23349 8.42107C4.4928 8.90692 4.86822 9.32111 5.32633 9.62676C5.60436 9.81226 5.72608 10.1593 5.62483 10.4779C5.52358 10.7964 5.22378 11.0095 4.88968 11.0004C4.58708 10.9921 4.28702 10.9553 3.99335 10.891Z" fill="#121212"/>
</svg>
